<svg xmlns="http://www.w3.org/2000/svg" xmlns:xlink="http://www.w3.org/1999/xlink" width="500" zoomAndPan="magnify" viewBox="0 0 375 374.999991" height="500" preserveAspectRatio="xMidYMid meet" version="1.0"><defs><g/><clipPath id="502c968538"><path d="M 12.882812 130 L 123 130 L 123 249.992188 L 12.882812 249.992188 Z M 12.882812 130 " clip-rule="nonzero"/></clipPath></defs><path fill="#1ed891" d="M 87.898438 174.921875 C 90.027344 177.03125 93.464844 177.015625 95.570312 174.886719 C 97.683594 172.761719 97.664062 169.328125 95.535156 167.21875 C 82.800781 154.609375 62.171875 154.703125 49.554688 167.429688 C 36.933594 180.15625 37.027344 200.765625 49.761719 213.375 C 56.132812 219.679688 64.472656 222.808594 72.800781 222.769531 C 81.125 222.734375 89.4375 219.527344 95.75 213.164062 C 97.859375 211.039062 97.84375 207.605469 95.714844 205.496094 C 93.585938 203.390625 90.148438 203.40625 88.039062 205.53125 C 79.632812 214.007812 65.890625 214.070312 57.40625 205.671875 C 48.921875 197.269531 48.859375 183.539062 57.265625 175.058594 C 65.671875 166.585938 79.410156 166.519531 87.898438 174.921875 Z M 87.898438 174.921875 " fill-opacity="1" fill-rule="nonzero"/><g clip-path="url(#502c968538)"><path fill="#1ed891" d="M 122.914062 213.074219 C 122.882812 205.832031 120.027344 199.035156 114.878906 193.9375 C 112.753906 191.832031 112.738281 188.390625 114.847656 186.269531 C 125.375 175.648438 125.292969 158.449219 114.667969 147.929688 C 91.289062 124.777344 53.414062 124.949219 30.246094 148.3125 C 19.023438 159.632812 12.878906 174.636719 12.953125 190.570312 C 13.027344 206.503906 19.304688 221.453125 30.632812 232.667969 C 42.324219 244.242188 57.636719 249.988281 72.921875 249.917969 C 88.210938 249.847656 103.46875 243.964844 115.054688 232.28125 C 120.15625 227.136719 122.945312 220.316406 122.914062 213.074219 Z M 107.347656 224.648438 C 88.390625 243.761719 57.402344 243.902344 38.269531 224.964844 C 29.003906 215.789062 23.867188 203.558594 23.808594 190.519531 C 23.746094 177.484375 28.773438 165.207031 37.953125 155.945312 C 56.910156 136.832031 87.898438 136.691406 107.027344 155.628906 C 113.40625 161.945312 113.453125 172.265625 107.132812 178.632812 C 100.816406 185.003906 100.863281 195.324219 107.238281 201.640625 C 110.328125 204.699219 112.039062 208.777344 112.058594 213.121094 C 112.082031 217.46875 110.40625 221.5625 107.347656 224.648438 " fill-opacity="1" fill-rule="nonzero"/></g><path fill="#1ed891" d="M 71.863281 199.105469 C 71.28125 199.105469 70.710938 199.050781 70.140625 198.9375 C 69.574219 198.824219 69.023438 198.65625 68.488281 198.4375 C 67.953125 198.214844 67.445312 197.945312 66.964844 197.621094 C 66.480469 197.300781 66.035156 196.933594 65.625 196.527344 C 65.21875 196.117188 64.851562 195.671875 64.53125 195.191406 C 64.207031 194.710938 63.9375 194.203125 63.714844 193.667969 C 63.492188 193.132812 63.328125 192.582031 63.214844 192.015625 C 63.101562 191.449219 63.042969 190.875 63.042969 190.296875 C 63.042969 189.71875 63.101562 189.144531 63.214844 188.578125 C 63.328125 188.011719 63.492188 187.460938 63.714844 186.925781 C 63.9375 186.390625 64.207031 185.882812 64.53125 185.402344 C 64.851562 184.921875 65.21875 184.476562 65.625 184.066406 C 66.035156 183.65625 66.480469 183.292969 66.964844 182.972656 C 67.445312 182.648438 67.953125 182.378906 68.488281 182.15625 C 69.023438 181.933594 69.574219 181.769531 70.140625 181.65625 C 70.710938 181.542969 71.28125 181.484375 71.863281 181.484375 C 72.441406 181.484375 73.015625 181.542969 73.582031 181.65625 C 74.148438 181.769531 74.699219 181.933594 75.234375 182.15625 C 75.769531 182.378906 76.277344 182.648438 76.761719 182.972656 C 77.242188 183.292969 77.6875 183.65625 78.097656 184.066406 C 78.507812 184.476562 78.871094 184.921875 79.191406 185.402344 C 79.515625 185.882812 79.785156 186.390625 80.007812 186.925781 C 80.230469 187.460938 80.398438 188.011719 80.507812 188.578125 C 80.621094 189.144531 80.679688 189.71875 80.679688 190.296875 C 80.679688 190.875 80.621094 191.449219 80.507812 192.015625 C 80.398438 192.582031 80.230469 193.132812 80.007812 193.667969 C 79.785156 194.203125 79.515625 194.710938 79.191406 195.191406 C 78.871094 195.671875 78.507812 196.117188 78.097656 196.527344 C 77.6875 196.933594 77.242188 197.300781 76.761719 197.621094 C 76.277344 197.941406 75.769531 198.214844 75.234375 198.4375 C 74.699219 198.65625 74.148438 198.824219 73.582031 198.9375 C 73.015625 199.050781 72.441406 199.105469 71.863281 199.105469 Z M 71.863281 199.105469 " fill-opacity="1" fill-rule="nonzero"/><g fill="#ffffff" fill-opacity="1"><g transform="translate(140.622461, 175.499988)"><g><path d="M 0.765625 -13.71875 C 0.765625 -4.953125 6.40625 0.6875 15.796875 0.6875 C 24.875 0.6875 30.078125 -4.28125 30.59375 -12.6875 L 20.203125 -12.6875 C 19.796875 -9.359375 18.359375 -8 15.765625 -8 C 12.921875 -8 11.078125 -9.84375 11.078125 -13.921875 L 11.078125 -15.28125 C 11.078125 -19.359375 12.921875 -21.203125 15.765625 -21.203125 C 18.359375 -21.203125 19.796875 -19.84375 20.203125 -16.515625 L 30.59375 -16.515625 C 30.078125 -24.921875 24.875 -29.875 15.796875 -29.875 C 6.40625 -29.875 0.765625 -24.234375 0.765625 -15.484375 Z M 0.765625 -13.71875 "/></g></g></g><g fill="#ffffff" fill-opacity="1"><g transform="translate(171.939354, 175.499988)"><g><path d="M 28.234375 -6.84375 C 28.234375 -10.796875 26.28125 -12.796875 22.40625 -13.359375 L 22.40625 -13.4375 C 25.484375 -14.046875 28.953125 -16.234375 28.953125 -21.078125 C 28.953125 -25.71875 25.40625 -29.203125 17.640625 -29.203125 L 1.875 -29.203125 L 1.875 0 L 11.5625 0 L 11.5625 -9.71875 L 15.6875 -9.71875 C 17.203125 -9.71875 17.796875 -9.125 17.796875 -7.046875 L 17.796875 -3.40625 C 17.796875 -1.796875 18.078125 -0.84375 18.765625 0 L 29.28125 0 C 28.4375 -0.921875 28.234375 -1.875 28.234375 -3.40625 Z M 11.5625 -16.765625 L 11.5625 -21.078125 L 16.4375 -21.078125 C 18.234375 -21.078125 19 -20.3125 19 -18.921875 C 19 -17.515625 18.203125 -16.765625 16.4375 -16.765625 Z M 11.5625 -16.765625 "/></g></g></g><g fill="#ffffff" fill-opacity="1"><g transform="translate(202.096353, 175.499988)"><g><path d="M 17.796875 -29.203125 L 13.875 -19.5625 L 9.875 -29.203125 L -1.046875 -29.203125 L 8.84375 -9 L 8.84375 0 L 18.921875 0 L 18.921875 -9.046875 L 28.71875 -29.203125 Z M 17.796875 -29.203125 "/></g></g></g><g fill="#ffffff" fill-opacity="1"><g transform="translate(229.773601, 175.499988)"><g><path d="M 1.875 -29.203125 L 1.875 0 L 11.5625 0 L 11.5625 -8.71875 L 16.71875 -8.71875 C 25 -8.71875 28.5625 -12.28125 28.5625 -19 C 28.5625 -25.6875 25 -29.203125 16.71875 -29.203125 Z M 11.5625 -16.6875 L 11.5625 -21.078125 L 16.234375 -21.078125 C 17.921875 -21.078125 18.6875 -20.3125 18.6875 -18.875 C 18.6875 -17.40625 17.921875 -16.6875 16.234375 -16.6875 Z M 11.5625 -16.6875 "/></g></g></g><g fill="#ffffff" fill-opacity="1"><g transform="translate(258.770719, 175.499988)"><g><path d="M 9.234375 -20.4375 L 9.234375 0 L 19.40625 0 L 19.40625 -20.4375 L 28.078125 -20.4375 L 28.078125 -29.203125 L 0.515625 -29.203125 L 0.515625 -20.4375 Z M 9.234375 -20.4375 "/></g></g></g><g fill="#ffffff" fill-opacity="1"><g transform="translate(287.367878, 175.499988)"><g><path d="M 15.84375 0.6875 C 25.203125 0.6875 30.875 -5 30.875 -13.71875 L 30.875 -15.484375 C 30.875 -24.203125 25.203125 -29.875 15.84375 -29.875 C 6.4375 -29.875 0.765625 -24.203125 0.765625 -15.484375 L 0.765625 -13.71875 C 0.765625 -5 6.4375 0.6875 15.84375 0.6875 Z M 15.84375 -8 C 12.921875 -8 11.078125 -9.84375 11.078125 -13.921875 L 11.078125 -15.28125 C 11.078125 -19.359375 12.921875 -21.203125 15.84375 -21.203125 C 18.71875 -21.203125 20.5625 -19.359375 20.5625 -15.28125 L 20.5625 -13.921875 C 20.5625 -9.84375 18.71875 -8 15.84375 -8 Z M 15.84375 -8 "/></g></g></g><g fill="#ffffff" fill-opacity="1"><g transform="translate(134.763087, 230.999985)"><g><path d="M 23.40625 0 L 23.40625 -9.078125 L 12 -9.078125 L 12 -29.203125 L 1.875 -29.203125 L 1.875 0 Z M 23.40625 0 "/></g></g></g><g fill="#ffffff" fill-opacity="1"><g transform="translate(158.56072, 230.999985)"><g><path d="M 25.59375 -11.953125 C 25.59375 -17.59375 21.3125 -21.875 13.359375 -21.875 C 5.15625 -21.875 0.765625 -17.484375 0.765625 -11.125 L 0.765625 -10.078125 C 0.765625 -3.71875 5.15625 0.6875 13.234375 0.6875 C 21.203125 0.6875 24.84375 -3.046875 25.3125 -7.5625 L 15.515625 -7.5625 C 15.15625 -6.6875 14.484375 -6.125 12.921875 -6.125 C 11.359375 -6.125 10.3125 -6.875 10.046875 -9.15625 L 25.4375 -9.15625 C 25.5625 -10.046875 25.59375 -10.875 25.59375 -11.953125 Z M 13.15625 -15.40625 C 14.796875 -15.40625 15.765625 -14.71875 16 -12.84375 L 10.125 -12.84375 C 10.515625 -14.765625 11.515625 -15.40625 13.15625 -15.40625 Z M 13.15625 -15.40625 "/></g></g></g><g fill="#ffffff" fill-opacity="1"><g transform="translate(184.918098, 230.999985)"><g><path d="M 13.203125 -21.875 C 5.15625 -21.875 1.6875 -18.15625 1.203125 -13.640625 L 10.796875 -13.640625 C 11 -14.515625 11.59375 -15.15625 13.125 -15.15625 C 14.59375 -15.15625 15.28125 -14.59375 15.4375 -13.234375 L 12.515625 -12.796875 C 4.15625 -11.5625 0.84375 -9.359375 0.84375 -4.875 C 0.84375 -1.6875 3.234375 0.6875 8.046875 0.6875 C 12.921875 0.6875 16.078125 -1.515625 17.203125 -5.640625 L 20.203125 0 L 24.953125 0 L 24.953125 -11.3125 C 24.953125 -18.234375 21.359375 -21.875 13.203125 -21.875 Z M 11.875 -5.953125 C 10.921875 -5.953125 10.4375 -6.4375 10.4375 -7.046875 C 10.4375 -8.078125 11.71875 -8.71875 14.40625 -9.234375 L 15.59375 -9.484375 C 15.59375 -7.515625 14 -5.953125 11.875 -5.953125 Z M 11.875 -5.953125 "/></g></g></g><g fill="#ffffff" fill-opacity="1"><g transform="translate(211.275476, 230.999985)"><g><path d="M 15.6875 -21.875 C 12.921875 -21.875 10.640625 -20.203125 9.796875 -14.59375 L 6.515625 -21.203125 L 1.796875 -21.203125 L 1.796875 0 L 11.6875 0 L 11.6875 -7.125 C 11.6875 -10.4375 12.515625 -11.484375 15.28125 -11.484375 C 16.59375 -11.484375 17.71875 -11.40625 18.59375 -11.3125 L 18.59375 -21.484375 C 18 -21.640625 17 -21.875 15.6875 -21.875 Z M 15.6875 -21.875 "/></g></g></g><g fill="#ffffff" fill-opacity="1"><g transform="translate(230.473568, 230.999985)"><g><path d="M 17.484375 -21.875 C 13.515625 -21.875 10.59375 -19.71875 9.5625 -14.765625 L 6.59375 -21.203125 L 1.796875 -21.203125 L 1.796875 0 L 11.40625 0 L 11.40625 -10.15625 C 11.40625 -12.5625 12.4375 -13.59375 13.921875 -13.59375 C 15.3125 -13.59375 16.078125 -12.84375 16.078125 -10.5625 L 16.078125 0 L 25.6875 0 L 25.6875 -12.484375 C 25.6875 -18.515625 22.3125 -21.875 17.484375 -21.875 Z M 17.484375 -21.875 "/></g></g></g><g fill="#ffffff" fill-opacity="1"><g transform="translate(257.550882, 230.999985)"><g><path d="M 11.6875 -27.515625 C 11.6875 -24.921875 9.953125 -23.203125 6.59375 -23.203125 C 3.28125 -23.203125 1.515625 -24.921875 1.515625 -27.515625 C 1.515625 -30.125 3.28125 -31.875 6.59375 -31.875 C 9.953125 -31.875 11.6875 -30.125 11.6875 -27.515625 Z M 11.40625 0 L 11.40625 -21.203125 L 1.796875 -21.203125 L 1.796875 0 Z M 11.40625 0 "/></g></g></g><g fill="#ffffff" fill-opacity="1"><g transform="translate(270.749569, 230.999985)"><g><path d="M 17.484375 -21.875 C 13.515625 -21.875 10.59375 -19.71875 9.5625 -14.765625 L 6.59375 -21.203125 L 1.796875 -21.203125 L 1.796875 0 L 11.40625 0 L 11.40625 -10.15625 C 11.40625 -12.5625 12.4375 -13.59375 13.921875 -13.59375 C 15.3125 -13.59375 16.078125 -12.84375 16.078125 -10.5625 L 16.078125 0 L 25.6875 0 L 25.6875 -12.484375 C 25.6875 -18.515625 22.3125 -21.875 17.484375 -21.875 Z M 17.484375 -21.875 "/></g></g></g><g fill="#ffffff" fill-opacity="1"><g transform="translate(297.826884, 230.999985)"><g><path d="M 27.046875 0.28125 C 27.046875 -3.59375 24.59375 -6.046875 18.3125 -6.046875 L 10.515625 -6.046875 C 9.15625 -6.046875 8.796875 -6.3125 8.796875 -6.875 C 8.796875 -7.4375 9.15625 -7.765625 10.4375 -7.765625 L 13.359375 -7.765625 C 22.515625 -7.765625 25.5625 -10.796875 25.5625 -14.6875 L 25.5625 -14.875 C 25.5625 -17.84375 23.875 -20.234375 19.28125 -21.3125 C 19.71875 -21.84375 20.59375 -22.15625 22.15625 -22.15625 C 23.515625 -22.15625 24.765625 -22.046875 25.5625 -21.953125 L 25.5625 -29.234375 C 25 -29.40625 24.203125 -29.5625 22.921875 -29.5625 C 19.125 -29.5625 16.234375 -26.84375 15.921875 -21.796875 C 15.125 -21.84375 14.28125 -21.875 13.359375 -21.875 C 4.15625 -21.875 1.125 -18.84375 1.125 -14.875 L 1.125 -14.71875 C 1.125 -12.15625 2.40625 -9.953125 6 -8.765625 C 2.359375 -8.046875 1.046875 -6.203125 1.046875 -3.84375 C 1.046875 -1.515625 2.6875 0.484375 6.203125 0.953125 C 2.515625 1.359375 1.359375 2.765625 1.359375 4.515625 C 1.359375 6.5625 3.28125 8.640625 12.875 8.640625 C 23.640625 8.640625 27.046875 5.15625 27.046875 0.28125 Z M 13.359375 -16.6875 C 15.40625 -16.6875 16.15625 -15.953125 16.15625 -14.796875 C 16.15625 -13.6875 15.40625 -12.921875 13.359375 -12.921875 C 11.28125 -12.921875 10.5625 -13.6875 10.5625 -14.796875 C 10.5625 -15.953125 11.28125 -16.6875 13.359375 -16.6875 Z M 14 3.4375 C 10.359375 3.4375 9.765625 2.765625 9.765625 2 C 9.765625 1.203125 10.359375 0.515625 14.59375 0.515625 C 18.15625 0.515625 18.71875 1.125 18.71875 1.875 C 18.71875 2.640625 17.953125 3.4375 14 3.4375 Z M 14 3.4375 "/></g></g></g></svg>